<svg id="Layer_1" data-name="Layer 1" xmlns="http://www.w3.org/2000/svg" width="340.9" height="396" viewBox="0 0 340.9 396"><title>Static</title><path d="M208.9,372.3a172.9,172.9,0,0,0,52.4-10.6,175.8,175.8,0,1,1,.2-325.5A173.3,173.3,0,0,0,27.8,204.9c0,.6,0,1.1.1,1.7s.1,1.5.1,2.2A173.2,173.2,0,0,0,208.9,372.3Z" fill="#fff"/><path d="M176,192.2a46.5,46.5,0,0,1,10.7,4.8c10.6,6.7,15.4,16.7,16.8,28.7a46.7,46.7,0,0,1-1.5,19.1c-3.5,11.8-11.3,20-22.3,25.2a67.4,67.4,0,0,1-27.6,6.3c-25.1.7-50.3.1-75.4.3-2.7,0-2.8-.2-2.8-2.9q0-74.8,0-149.5c0-2.8.2-2.9,3.1-2.9,22.9,0,45.8-.1,68.6.1,9.8.1,19.6.7,29,4.2,13.1,4.9,21.2,15.9,21.8,29.9a54.4,54.4,0,0,1-.6,12.7c-1.9,10-7.8,17-16.3,22.1Zm-46.6,57.3h16.1a37.9,37.9,0,0,0,8.6-1c7.7-1.7,13.3-5.9,14.8-14.1a30.3,30.3,0,0,0-.5-13,16.1,16.1,0,0,0-8.8-10.8,27.9,27.9,0,0,0-12.4-3H110.7c-1.9,0-2.5.6-2.5,2.6q.1,18.4,0,36.8c0,1.9.6,2.6,2.5,2.6Zm-1.3-65.7h0c5.6,0,11.2.2,16.7-.1,8.5-.4,17.5-3.9,18.2-16.3.5-8.2-2.2-14.5-10.8-17.5a28.5,28.5,0,0,0-9.3-1.6H110.7c-2,0-2.5.7-2.5,2.6q.1,15.2,0,30.5c0,1.9.6,2.6,2.5,2.6Z" fill="#fff"/><path d="M279.4,225.1H241.9c-2.8,0-3.1.3-2.7,3a43.2,43.2,0,0,0,2.4,10.7A20.6,20.6,0,0,0,256,251.7a34.2,34.2,0,0,0,18.6.2c6.7-1.9,12.2-5.6,15.3-12.1a2.1,2.1,0,0,1,2.2-1.3H316c1.3,0,1.8.5,1.3,1.8-7,20.3-19.3,32.4-42.5,35.5-11.6,1.6-23,.7-33.9-3.7-14.1-5.7-23.7-15.9-28.8-30.1-6.7-18.5-6.2-36.9,3-54.6s22.6-25.6,40.7-28.5a56.4,56.4,0,0,1,30,2.9c13,5.1,22.1,14.4,27.9,27,5,10.7,6.6,22.1,6.4,33.8,0,2-.8,2.5-2.7,2.5Zm-15.6-20h22.4c1.9,0,2.3-.6,1.9-2.4a41.8,41.8,0,0,0-4.2-11,17.8,17.8,0,0,0-10.1-8.5,29.9,29.9,0,0,0-16.5-.6c-10,2.5-15.8,9.1-17.7,19.1-.6,3.4-.6,3.4,2.9,3.4Z" fill="#fff"/><path d="M264.7,129.2H293c3.2,0,3.2,0,3.2,3.3s0,8.2,0,12.3c0,1.7-.6,2.2-2.2,2.2H235.4c-1.6,0-2.3-.7-2.3-2.3,0-4.3.1-8.6,0-12.9,0-2.1.8-2.7,2.8-2.7Z" fill="#fff"/></svg>