<svg id="Layer_1" data-name="Layer 1" xmlns="http://www.w3.org/2000/svg" width="2.7in" height="3.2in" viewBox="0 0 197.7 227.4"><title>behance</title><path d="M118.1,117.8a28.9,28.9,0,0,1,6.7,3c6.6,4.1,9.6,10.4,10.4,17.9a29.1,29.1,0,0,1-.9,11.9c-2.2,7.4-7,12.4-13.9,15.7a41.9,41.9,0,0,1-17.2,3.9c-15.6.4-31.3.1-46.9.2-1.7,0-1.8-.1-1.8-1.8q0-46.5,0-93c0-1.7.1-1.8,1.9-1.8H99.1c6.1,0,12.2.5,18,2.6A20.1,20.1,0,0,1,130.7,95a33.8,33.8,0,0,1-.4,7.9c-1.2,6.2-4.8,10.6-10.1,13.8Zm-29,35.6h10a23.5,23.5,0,0,0,5.4-.6c4.8-1.1,8.3-3.7,9.2-8.8a18.9,18.9,0,0,0-.3-8.1,10,10,0,0,0-5.5-6.7,17.4,17.4,0,0,0-7.7-1.9H77.5c-1.2,0-1.6.4-1.6,1.6q.1,11.5,0,22.9c0,1.2.4,1.6,1.6,1.6Zm-.8-40.8h0c3.5,0,6.9.1,10.4,0,5.3-.3,10.9-2.5,11.3-10.1.3-5.1-1.4-9-6.7-10.9a17.7,17.7,0,0,0-5.8-1h-20c-1.2,0-1.6.4-1.6,1.6q.1,9.5,0,19c0,1.2.4,1.6,1.6,1.6Z" transform="translate(-10 -8.3)" fill="#fff"/><path d="M182.4,138.3H159.1c-1.8,0-1.9.2-1.7,1.9a26.9,26.9,0,0,0,1.5,6.7,12.8,12.8,0,0,0,8.9,8,21.3,21.3,0,0,0,11.6.1c4.1-1.2,7.6-3.5,9.5-7.5a1.3,1.3,0,0,1,1.3-.8h14.9c.8,0,1.1.3.8,1.1-4.4,12.6-12,20.1-26.4,22.1a41,41,0,0,1-21.1-2.3,30.5,30.5,0,0,1-17.9-18.7c-4.1-11.5-3.9-23,1.8-33.9s14.1-15.9,25.3-17.7a35.1,35.1,0,0,1,18.6,1.8c8.1,3.2,13.7,9,17.3,16.8a47.1,47.1,0,0,1,4,21c0,1.2-.5,1.6-1.7,1.5Zm-9.7-12.4h13.9c1.2,0,1.4-.4,1.2-1.5a26,26,0,0,0-2.6-6.9,11,11,0,0,0-6.3-5.3,18.6,18.6,0,0,0-10.3-.4c-6.2,1.5-9.8,5.6-11,11.9-.4,2.1-.4,2.1,1.8,2.1Z" transform="translate(-10 -8.3)" fill="#fff"/><path d="M173.2,78.7h17.6c2,0,2,0,2,2.1s0,5.1,0,7.6c0,1-.4,1.4-1.4,1.4H155c-1,0-1.4-.4-1.4-1.4,0-2.7,0-5.4,0-8s.5-1.7,1.7-1.7Z" transform="translate(-10 -8.3)" fill="#fff"/><path d="M207.5,198.9a113.7,113.7,0,1,1-.6-154.3,113.2,113.2,0,0,0-80.2-33C64.5,11.5,14.2,61,14.2,122S64.5,232.4,126.7,232.4A113.2,113.2,0,0,0,207.5,198.9Z" transform="translate(-10 -8.3)" fill="#fff"/></svg>