<svg id="Layer_1" data-name="Layer 1" xmlns="http://www.w3.org/2000/svg" width="340.9" height="396" viewBox="0 0 340.9 396"><title>Static</title><path d="M208.9,372.3a172.9,172.9,0,0,0,52.4-10.6,175.8,175.8,0,1,1,.2-325.5A173.3,173.3,0,0,0,27.8,204.9c0,.6,0,1.1.1,1.7s.1,1.5.1,2.2A173.2,173.2,0,0,0,208.9,372.3Z" fill="#fff"/><path d="M197.3,112.9H305.7c4.8,0,4.8,0,4.8,4.8q0,81.2,0,162.5c0,4.8,0,4.9-4.8,4.9H88.1c-4.8,0-4.9,0-4.9-5.2q0-81,0-162.1c0-4.8,0-4.8,4.8-4.8H197.3Zm-94.1,12.2,2.9,3.2,77.5,79.6c10.7,10.9,16.1,10.9,26.8-.1l76.7-78.8,3.5-3.9Zm1.6,147.6H290.2a27.8,27.8,0,0,0-2.1-2.9l-58.9-60.6c-1.8-1.8-3.1-1.7-4.8.1-3.6,3.6-7.2,7.2-10.9,10.7-13,11.9-20.3,11.9-33.3-.1-4.4-4.1-8.7-8.3-12.6-12Zm-9.6-8.4c1.8-1.6,2.9-2.6,3.9-3.6l56.8-58.4c3.3-3.4,3.3-3.5,0-6.9L98,135.9l-2.8-2.6ZM298.6,133.6c-1.8,1.6-2.8,2.4-3.7,3.3q-28.6,29.4-57.2,58.7c-2.5,2.6-2.2,4.2.1,6.6q28.7,29.3,57.2,58.7c.9,1,2.1,1.7,3.6,3Z" fill="#fff" stroke="#fff" stroke-miterlimit="10" stroke-width="6.17"/></svg>