<svg id="Layer_1" data-name="Layer 1" xmlns="http://www.w3.org/2000/svg" width="2.7in" height="3.2in" viewBox="0 0 197.5 227.4"><title>email-hover</title><path d="M134.2,66.2h70.4c3.1,0,3.1,0,3.1,3.1q0,52.7,0,105.4c0,3.1,0,3.2-3.1,3.2H63.4c-3.1,0-3.2,0-3.2-3.4q0-52.6,0-105.2c0-3.1,0-3.1,3.1-3.1h70.8ZM73.2,74.1l1.9,2.1,50.3,51.6c6.9,7.1,10.5,7.1,17.4,0l49.8-51.1,2.3-2.6Zm1,95.8H194.5a18.1,18.1,0,0,0-1.4-1.9L155,128.7c-1.2-1.2-2-1.1-3.1,0s-4.7,4.7-7.1,6.9c-8.4,7.7-13.2,7.7-21.6-.1l-8.1-7.8ZM68,164.4l2.5-2.3,36.9-37.9c2.2-2.2,2.2-2.3,0-4.5L69.8,81.1,68,79.5ZM200,79.6l-2.4,2.2-37.1,38.1c-1.6,1.7-1.5,2.7.1,4.3l37.1,38.1c.6.6,1.3,1.1,2.3,1.9Z" transform="translate(-19 -8.3)" fill="#d0212c" stroke="#d0212c" stroke-miterlimit="10" stroke-width="4"/><path d="M216.5,198.9a113.7,113.7,0,1,1-.6-154.3,113.2,113.2,0,0,0-80.2-33C73.5,11.5,23.1,61,23.1,122S73.5,232.4,135.7,232.4A113.2,113.2,0,0,0,216.5,198.9Z" transform="translate(-19 -8.3)" fill="#cf212b"/></svg>