<svg id="Layer_1" data-name="Layer 1" xmlns="http://www.w3.org/2000/svg" width="2.7in" height="3.2in" viewBox="0 0 197.5 227.4"><title>instagram-hover</title><path d="M56.1,121.9c.2-9.9.3-19.8.6-29.7S58.4,75.5,63,68A36.5,36.5,0,0,1,88.8,50.5a132,132,0,0,1,20.1-1.6c14.5-.2,29.1-.1,43.6,0,7.7.1,15.4.3,22.8,2.9,14.2,4.9,22.8,14.9,25.6,29.5a117.2,117.2,0,0,1,1.7,20.3c.2,14.5.1,29.1,0,43.6-.1,7.6-.3,15.3-2.9,22.6-4.9,14.2-14.9,22.9-29.6,25.7a118.8,118.8,0,0,1-20.3,1.6c-14.5.2-29,.1-43.5,0-7.7-.1-15.4-.3-22.8-2.9-14.2-4.9-22.8-14.9-25.6-29.5-1.3-6.6-1.4-13.5-1.7-20.3s-.1-13.7-.1-20.5Zm133.7-1.1h-.3c0-5.8.1-11.6,0-17.3s-.4-11.1-.9-16.6c-1.3-12.4-8.6-20.9-20.8-23.2-6.5-1.2-13.3-1.4-19.9-1.5-12.2-.2-24.4-.2-36.6,0a137.1,137.1,0,0,0-18.9,1.3C81.7,65,74.5,71.1,71.6,81.6A43.1,43.1,0,0,0,70,92c-.3,13.3-.5,26.5-.5,39.8,0,8.4.2,16.9,1,25.3,1.1,12.4,8.5,20.9,20.7,23.3,6.6,1.3,13.4,1.4,20.1,1.5,12.1.2,24.3.2,36.4,0,5.7-.1,11.3-.4,17-.9a26.7,26.7,0,0,0,14.3-5.6c6.8-5.4,9.4-12.9,9.8-21.1C189.4,143.2,189.5,132,189.8,120.8Z" transform="translate(-14.5 -8.3)" fill="#d0212c"/><path d="M167.1,122.1a37.5,37.5,0,0,1-37.7,37.6c-21,0-37.6-16.8-37.6-38s16.9-37.2,38-37.2A37.5,37.5,0,0,1,167.1,122.1ZM129.5,97.6A24.4,24.4,0,1,0,153.9,122,24.5,24.5,0,0,0,129.5,97.6Z" transform="translate(-14.5 -8.3)" fill="#d0212c"/><path d="M168.7,74.1a8.6,8.6,0,0,1,8.7,8.9,8.8,8.8,0,0,1-8.8,8.8,8.9,8.9,0,0,1-8.9-8.9A8.8,8.8,0,0,1,168.7,74.1Z" transform="translate(-14.5 -8.3)" fill="#d0212c"/><path d="M212,198.9a113.7,113.7,0,1,1-.6-154.3,113.2,113.2,0,0,0-80.2-33C69,11.5,18.6,61,18.6,122S69,232.4,131.2,232.4A113.2,113.2,0,0,0,212,198.9Z" transform="translate(-14.5 -8.3)" fill="#cf212b"/></svg>