<svg id="Layer_1" data-name="Layer 1" xmlns="http://www.w3.org/2000/svg" width="340.9" height="396" viewBox="0 0 340.9 396"><title>Hovered</title><path d="M208.9,372.3a172.9,172.9,0,0,0,52.4-10.6,175.8,175.8,0,1,1,.2-325.5A173.3,173.3,0,0,0,27.8,204.9c0,.6,0,1.1.1,1.7s.1,1.5.1,2.2A173.2,173.2,0,0,0,208.9,372.3Z" fill="#d0212c"/><path d="M73.8,197.9c.3-15.2.4-30.3.8-45.5.4-13.1,2.7-25.8,9.7-37.1,9.1-14.9,22.6-23.9,39.6-26.8A202.2,202.2,0,0,1,154.7,86c22.3-.3,44.6-.2,66.9,0,11.8.1,23.6.5,34.9,4.4,21.7,7.5,34.9,22.8,39.2,45.1,1.9,10.1,2.4,20.7,2.5,31,.3,22.3.2,44.6,0,66.9-.1,11.7-.5,23.4-4.4,34.7-7.5,21.8-22.8,35-45.3,39.3-10.1,1.9-20.7,2.4-31,2.5-22.2.3-44.4.2-66.6,0-11.8-.1-23.6-.5-34.9-4.4C94.2,298,81,282.7,76.8,260.4c-1.9-10.1-2.2-20.7-2.6-31s-.1-21-.1-31.5Zm204.8-1.7h-.5c0-8.8.2-17.7-.1-26.5s-.6-17-1.4-25.5c-1.9-19-13.2-32-31.9-35.6-10-1.9-20.3-2.1-30.5-2.3-18.7-.3-37.4-.3-56,0a210,210,0,0,0-28.9,2c-16.2,2.5-27.3,11.8-31.8,27.9a65.9,65.9,0,0,0-2.4,16c-.5,20.3-.8,40.6-.7,60.9,0,12.9.3,25.9,1.5,38.8,1.7,19,13.1,32.1,31.7,35.7,10,1.9,20.5,2.2,30.8,2.4,18.6.4,37.2.2,55.8,0,8.7-.1,17.4-.6,26-1.4a40.9,40.9,0,0,0,21.9-8.5c10.4-8.3,14.4-19.7,15.1-32.4C277.9,230.4,278.1,213.3,278.6,196.2Z" fill="#d0202d"/><path d="M243.8,198.1a57.4,57.4,0,0,1-57.7,57.5c-32.1,0-57.5-25.7-57.5-58.2s25.9-57,58.2-57S243.8,166.3,243.8,198.1Zm-57.7-37.5a37.4,37.4,0,1,0,37.4,37.3A37.5,37.5,0,0,0,186.2,160.6Z" fill="#d0202d"/><path d="M246.2,124.7a13.2,13.2,0,0,1,13.4,13.6,13.5,13.5,0,0,1-13.4,13.4,13.7,13.7,0,0,1-13.6-13.6A13.5,13.5,0,0,1,246.2,124.7Z" fill="#d0202d"/></svg>