<svg id="Layer_1" data-name="Layer 1" xmlns="http://www.w3.org/2000/svg" width="2.7in" height="3.2in" viewBox="0 0 197.5 227.4"><title>twitter-hover</title><path d="M57.7,175.2a63.8,63.8,0,0,0,45.9-13c-14.4-1.3-24.1-8.4-29.3-21.8,2.5.1,4.7.3,6.9.3a48.6,48.6,0,0,0,6.7-.9c-15.4-4.8-23.7-15-24.6-31.2,4.4,1.9,8.8,3.5,13.7,3.5C63.1,100.6,60,86.7,67.6,70c17.2,20.2,38.8,31.3,65.1,33.1-.2-2-.5-3.8-.6-5.6a30.3,30.3,0,0,1,10.1-24.7c7.9-7.3,17.3-9.7,27.7-7.7a29.2,29.2,0,0,1,15.7,8.4,2,2,0,0,0,2.2.6,62.4,62.4,0,0,0,16.8-6.3L206,67h.4a32.4,32.4,0,0,1-12.9,16.8c5.9-.4,11.5-2.2,17.2-4.5A60.1,60.1,0,0,1,201,90.6c-1.5,1.4-3.2,2.7-4.8,4a2.6,2.6,0,0,0-1.1,2.4,85.2,85.2,0,0,1-3.3,26.6,94,94,0,0,1-8.9,21.3,91.1,91.1,0,0,1-14.6,19.3,83.7,83.7,0,0,1-28.1,18.7,89.8,89.8,0,0,1-30.8,6.4,90.6,90.6,0,0,1-22.2-1.8A83.8,83.8,0,0,1,65.8,180l-8.3-4.4Z" transform="translate(-13.1 -8.4)" fill="#d0212c"/><path d="M210.7,198.9a113.7,113.7,0,1,1-.6-154.3,113.2,113.2,0,0,0-80.2-33C67.7,11.6,17.3,61.1,17.3,122.1S67.7,232.5,129.8,232.5A113.2,113.2,0,0,0,210.7,198.9Z" transform="translate(-13.1 -8.4)" fill="#cf212b"/></svg>