<svg id="Layer_1" data-name="Layer 1" xmlns="http://www.w3.org/2000/svg" width="340.9" height="396" viewBox="0 0 340.9 396"><title>Static</title><path d="M208.9,372.3a172.9,172.9,0,0,0,52.4-10.6,175.8,175.8,0,1,1,.2-325.5A173.3,173.3,0,0,0,27.8,204.9c0,.6,0,1.1.1,1.7s.1,1.5.1,2.2A173.2,173.2,0,0,0,208.9,372.3Z" fill="#fff"/><path d="M74,276.1c27.2,2.5,51.7-4.2,73.8-21-23.2-2.1-38.7-13.6-47.2-35.1,4,.2,7.5.5,11.1.4a78.1,78.1,0,0,0,10.8-1.4c-24.7-7.7-38.1-24.2-39.5-50.2,7.1,3.1,14.2,5.6,22.1,5.7-22.4-18.6-27.3-41-15.2-67.7,27.7,32.5,62.3,50.3,104.7,53.2-.3-3.2-.8-6.1-.9-9.1-.7-15.7,4.7-29.1,16.2-39.7s27.8-15.6,44.6-12.4a47,47,0,0,1,25.2,13.5,3.2,3.2,0,0,0,3.5,1,100.3,100.3,0,0,0,27-10.2l2.3-1.1h.7c-3.8,11.4-10.9,20.2-20.8,27,9.5-.7,18.5-3.6,27.6-7.3A96.6,96.6,0,0,1,304.5,140c-2.5,2.3-5.1,4.4-7.7,6.4a4.1,4.1,0,0,0-1.8,3.8,137,137,0,0,1-5.2,42.7,151.2,151.2,0,0,1-14.4,34.3,146.5,146.5,0,0,1-23.5,31,134.5,134.5,0,0,1-45.2,30A144.4,144.4,0,0,1,157,298.6a145.8,145.8,0,0,1-35.7-2.9,134.8,134.8,0,0,1-34.2-11.9l-13.3-7.1Z" fill="#fff"/></svg>