<svg id="Layer_1" data-name="Layer 1" xmlns="http://www.w3.org/2000/svg" width="1137.2" height="772.9" viewBox="0 0 1137.2 772.9"><title>orion-logo</title><path d="M652.6,458.4H641.1c37.6-174.1,192.4-304.5,377.7-304.5a385.1,385.1,0,0,1,272.4,112.3,380.5,380.5,0,0,0-265.6-107.6C842.8,158.6,690.1,287,652.6,458.4Z" transform="translate(-391.4 -153.9)" fill="#d0212c"/><path d="M648.1,597.9H636.6a391.5,391.5,0,0,1,0-115h11.5a385.6,385.6,0,0,0,0,115Z" transform="translate(-391.4 -153.9)" fill="#fff"/><path d="M1292,813.6a385.3,385.3,0,0,1-273.3,113.2c-185.3,0-340.1-130.4-377.7-304.5h11.5c37.5,171.4,190.2,299.7,372.9,299.7A380.5,380.5,0,0,0,1292,813.6Z" transform="translate(-391.4 -153.9)" fill="#d0212c"/><path d="M511.6,540.4q0,24.8-17.6,42.4a60,60,0,1,1,17.6-42.4Zm-12,0a48.2,48.2,0,1,0-14.1,34A46.8,46.8,0,0,0,499.6,540.4Z" transform="translate(-391.4 -153.9)" fill="#fff"/><path d="M608.4,520a35.6,35.6,0,0,0-20.5-32.8c-5.3-2.5-12.9-4.4-28.3-4.4H541.9v10.4h20.1c9.6,0,15.5.8,22.4,4.4s12.6,13,12.6,22.1-6.4,20.8-19,24.4c-5.1,1.6-10.1,1.7-24.7,1.7l39,52.1h14.4L574.2,555C596.4,553.6,608.4,536.6,608.4,520Z" transform="translate(-391.4 -153.9)" fill="#fff"/><path d="M787.1,540.4q0,24.8-17.6,42.4a60,60,0,1,1,17.6-42.4Zm-12,0a48.2,48.2,0,1,0-14.1,34A46.8,46.8,0,0,0,775.1,540.4Z" transform="translate(-391.4 -153.9)" fill="#fff"/><path d="M910.8,599.1l-79-87.6V598H820.3V481.7l79.1,87.6V482.6h11.5Z" transform="translate(-391.4 -153.9)" fill="#fff"/><path d="M1046,494.1h-25.1v104h-11.5v-104H984.5V482.6H1046Z" transform="translate(-391.4 -153.9)" fill="#d0212c"/><path d="M1140.9,599.9h-12.3l-33.4-88.2-33.4,88.2h-12.3l45.7-119Z" transform="translate(-391.4 -153.9)" fill="#d0212c"/><path d="M1181.3,559.5l-39.9-76.6h12.7l32.8,64.5,33.7-64.5h12.6l-40.4,76.6v38.4h-11.5Z" transform="translate(-391.4 -153.9)" fill="#d0212c"/><path d="M1300.2,598.1h-50.1V482.6h11.5v104h38.6Z" transform="translate(-391.4 -153.9)" fill="#d0212c"/><path d="M1431.8,540.4q0,24.8-17.6,42.4a60,60,0,1,1,17.6-42.4Zm-12,0a48.2,48.2,0,1,0-14.1,34A46.8,46.8,0,0,0,1419.8,540.4Z" transform="translate(-391.4 -153.9)" fill="#d0212c"/><path d="M1528.6,520c0-14.1-7.6-26.7-20.5-32.8-5.3-2.5-12.9-4.4-28.3-4.4h-17.7v10.4h20.1c9.6,0,15.5.8,22.4,4.4s12.6,13,12.6,22.1-6.4,20.8-19,24.4c-5.1,1.6-10.1,1.7-24.7,1.7l39,52.1h14.4L1494.4,555C1516.7,553.6,1528.6,536.6,1528.6,520Z" transform="translate(-391.4 -153.9)" fill="#d0212c"/></svg>