<svg id="Layer_1" data-name="Layer 1" xmlns="http://www.w3.org/2000/svg" width="571.5" height="351.6" viewBox="0 0 571.5 351.6"><title>orion-logo-bold</title><path d="M50.2,425.4a29.9,29.9,0,1,1,30-29.8A30,30,0,0,1,50.2,425.4Zm0-52.1c-14.9,0-21.6,13-21.6,22.2s6.8,22.2,21.6,22.2,21.6-12.9,21.6-22S64.5,373.2,50.2,373.2Z" transform="translate(-20.2 -220.7)" fill="#fff"/><path d="M120.3,385.1c0-4.8-1.6-10.1-5.3-13.6s-7.2-4.8-15.4-4.8H90.2v7.7h8.9c9.5,0,12.8,5.9,12.8,10.8,0,11.2-12.5,11.3-15.9,11.3H90.2l19.2,27.9h10.5l-16.1-21.5C107.5,402.8,120.3,400.3,120.3,385.1Z" transform="translate(-20.2 -220.7)" fill="#fff"/><path d="M521.5,425.4a29.9,29.9,0,1,1,30-29.8A30,30,0,0,1,521.5,425.4Zm0-52.1c-14.9,0-21.6,13-21.6,22.2s6.8,22.2,21.6,22.2,21.6-12.9,21.6-22S535.9,373.2,521.5,373.2Z" transform="translate(-20.2 -220.7)" fill="#d0212c"/><path d="M183,425.4a29.9,29.9,0,1,1,30-29.8A30,30,0,0,1,183,425.4Zm0-52.1c-14.9,0-21.6,13-21.6,22.2s6.8,22.2,21.6,22.2,21.6-12.9,21.6-22S197.4,373.2,183,373.2Z" transform="translate(-20.2 -220.7)" fill="#fff"/><path d="M423.4,424.3V403.5l-17.9-36.9h9.4l12.7,27,12.6-27h9.4l-17.8,36.9v20.8Z" transform="translate(-20.2 -220.7)" fill="#d0212c"/><path d="M456.7,424.3V366.6h8.4v50h20v7.7Z" transform="translate(-20.2 -220.7)" fill="#d0212c"/><polygon points="337.4 145.9 337.4 153.4 325 153.4 325 203.6 316.6 203.6 316.6 153.4 304.2 153.4 304.2 145.9 337.4 145.9" fill="#d0212c"/><polygon points="384.3 203.6 375.1 203.6 362.1 167.6 349.1 203.6 339.8 203.6 362.1 145.2 384.3 203.6" fill="#d0212c"/><path d="M521.5,425.4a29.9,29.9,0,1,1,30-29.8A30,30,0,0,1,521.5,425.4Zm0-52.1c-14.9,0-21.6,13-21.6,22.2s6.8,22.2,21.6,22.2,21.6-12.9,21.6-22S535.9,373.2,521.5,373.2Z" transform="translate(-20.2 -220.7)" fill="#d0212c"/><path d="M591.7,385.1c0-4.8-1.6-10.1-5.3-13.6s-7.2-4.8-15.4-4.8h-9.4v7.7h8.9c9.5,0,12.8,5.9,12.8,10.8,0,11.2-12.5,11.3-15.9,11.3h-5.8l19.2,27.9h10.5l-16.1-21.5C578.9,402.8,591.7,400.3,591.7,385.1Z" transform="translate(-20.2 -220.7)" fill="#d0212c"/><path d="M269.7,425.8l-37.4-39v37.5h-8.8V367.2l37.4,39.2V368.7h8.8Z" transform="translate(-20.2 -220.7)" fill="#fff"/><path d="M142.7,424.3h-8.2a177.3,177.3,0,0,1,.4-57.7H143a174.7,174.7,0,0,0-.4,57.7Z" transform="translate(-20.2 -220.7)" fill="#fff"/><path d="M387.6,553.3A175.9,175.9,0,0,1,138.2,441.8h8.3A173.4,173.4,0,0,0,387.6,553.3Z" transform="translate(-20.2 -220.7)" fill="#d0212c"/><path d="M387.6,239.7A173.4,173.4,0,0,0,147,349.1h-8.3A175.9,175.9,0,0,1,387.6,239.7Z" transform="translate(-20.2 -220.7)" fill="#d0212c"/></svg>