<svg id="Layer_1" data-name="Layer 1" xmlns="http://www.w3.org/2000/svg" width="576.3" height="351.6" viewBox="0 0 576.3 351.6"><title>orion-logo-bold</title><path d="M49.7,415.4a30,30,0,1,1,30-29.8A30,30,0,0,1,49.7,415.4Zm0-52.2c-14.9,0-21.6,13.1-21.6,22.2s6.8,22.3,21.6,22.3,21.6-13,21.6-22S64.1,363.2,49.7,363.2Z" transform="translate(-19.7 -210.7)" fill="#fff"/><path d="M119.8,375.1c0-4.8-1.6-10.1-5.3-13.6s-7.2-4.9-15.3-4.9H89.8v7.7h8.8c9.5,0,12.8,6,12.8,10.8,0,11.1-12.5,11.3-15.9,11.3H89.7l19.2,27.9h10.5l-16.1-21.5C107,392.8,119.8,390.4,119.8,375.1Z" transform="translate(-19.7 -210.7)" fill="#fff"/><path d="M182.6,415.4a30,30,0,1,1,30-29.8A30,30,0,0,1,182.6,415.4Zm0-52.2c-14.9,0-21.6,13.1-21.6,22.2s6.8,22.3,21.6,22.3,21.6-13,21.6-22S196.9,363.2,182.6,363.2Z" transform="translate(-19.7 -210.7)" fill="#fff"/><path d="M269.3,414.3l-37.5-37.5v37.5h-8.7V357.2l37.4,37.6V356.6h8.8Z" transform="translate(-19.7 -210.7)" fill="#fff"/><path d="M142.2,414.3H134a181.9,181.9,0,0,1-2.2-27.8,173.2,173.2,0,0,1,2.6-29.9h8.2a173.2,173.2,0,0,0-2.6,29.9A181.9,181.9,0,0,0,142.2,414.3Z" transform="translate(-19.7 -210.7)" fill="#fff"/><path d="M387.2,543.3A175.9,175.9,0,0,1,137.7,431.8H146A173.4,173.4,0,0,0,387.2,543.3Z" transform="translate(-19.7 -210.7)" fill="#be1e2d"/><path d="M387.2,229.7A173.4,173.4,0,0,0,146.6,339.1h-8.3A175.9,175.9,0,0,1,387.2,229.7Z" transform="translate(-19.7 -210.7)" fill="#be1e2d"/><path d="M427.6,414.3V393.5l-17.9-36.9h9.5l12.7,27.1,12.6-27.1h9.3l-17.7,36.9v20.8Z" transform="translate(-19.7 -210.7)" fill="#be1e2d"/><polygon points="340.1 145.9 340.1 153.4 327.7 153.4 327.7 203.6 319.3 203.6 319.3 153.4 306.9 153.4 306.9 145.9 340.1 145.9" fill="#be1e2d"/><polygon points="389.7 203.6 380.5 203.6 367.5 167.6 354.6 203.6 345.3 203.6 367.5 145.2 389.7 203.6" fill="#be1e2d"/><path d="M525.8,415.4a30,30,0,1,1,30-29.8A30,30,0,0,1,525.8,415.4Zm0-52.2c-14.9,0-21.6,13.1-21.6,22.2s6.8,22.3,21.6,22.3,21.6-13,21.6-22S540.2,363.2,525.8,363.2Z" transform="translate(-19.7 -210.7)" fill="#be1e2d"/><path d="M596,375.1c0-4.8-1.6-10.1-5.3-13.6s-7.2-4.9-15.3-4.9H566v7.7h8.8c9.5,0,12.8,6,12.8,10.8,0,11.1-12.5,11.3-15.9,11.3h-5.8l19.2,27.9h10.5l-16.1-21.5C583.2,392.8,596,390.4,596,375.1Z" transform="translate(-19.7 -210.7)" fill="#be1e2d"/><path d="M491.4,406.6v7.7H463a170,170,0,0,0,2.3-27.8,166.6,166.6,0,0,0-2.4-28.4,7.7,7.7,0,0,0-.2-1.5h8.2c.2,1,.3,1.9.5,2.9a184.5,184.5,0,0,1,2,27,190.4,190.4,0,0,1-1.1,20.1Z" transform="translate(-19.7 -210.7)" fill="#be1e2d"/><rect x="443.3" y="203.6" width="8.2" height="0.01" fill="#231f20"/></svg>