<svg id="Layer_1" data-name="Layer 1" xmlns="http://www.w3.org/2000/svg" width="546.5" height="356.8" viewBox="0 0 546.5 356.8"><title>orion-logo-bold</title><path d="M62.7,423.4a29.9,29.9,0,1,1,30-29.8A30,30,0,0,1,62.7,423.4Zm0-52.1c-14.9,0-21.6,13-21.6,22.2s6.8,22.2,21.6,22.2,21.6-12.9,21.6-22S77.1,371.3,62.7,371.3Z" transform="translate(-32.7 -218.2)" fill="#fff"/><path d="M136.3,383.1c0-4.8-1.6-10.1-5.3-13.6s-7.2-4.8-15.4-4.8h-9.4v7.7h8.9c9.5,0,12.8,5.9,12.8,10.8,0,11.2-12.5,11.3-15.9,11.3h-5.8l19.2,27.9h10.5l-16.1-21.5C123.5,400.8,136.3,398.4,136.3,383.1Z" transform="translate(-32.7 -218.2)" fill="#fff"/><path d="M505.7,423.4a29.9,29.9,0,1,1,30-29.8A30,30,0,0,1,505.7,423.4Zm0-52.1c-14.9,0-21.6,13-21.6,22.2s6.8,22.2,21.6,22.2,21.6-12.9,21.6-22S520,371.3,505.7,371.3Z" transform="translate(-32.7 -218.2)" fill="#d0212c"/><path d="M579.2,383.1c0-4.8-1.6-10.1-5.3-13.6s-7.2-4.8-15.4-4.8h-9.4v7.7H558c9.5,0,12.8,5.9,12.8,10.8,0,11.2-12.5,11.3-15.9,11.3h-5.8l19.2,27.9h10.5l-16.1-21.5C566.5,400.8,579.2,398.4,579.2,383.1Z" transform="translate(-32.7 -218.2)" fill="#d0212c"/><path d="M196.6,423.4a29.9,29.9,0,1,1,30-29.8A30,30,0,0,1,196.6,423.4Zm0-52.1c-14.9,0-21.6,13-21.6,22.2s6.8,22.2,21.6,22.2,21.6-12.9,21.6-22S210.9,371.3,196.6,371.3Z" transform="translate(-32.7 -218.2)" fill="#fff"/><path d="M272.5,422.3l-28.5-44.6h-.2v44.6h-8.4V364.7h9.2l28.1,43.9h.2V364.7h8.4v57.7Z" transform="translate(-32.7 -218.2)" fill="#fff"/><path d="M340.6,371.1H328.2v51.2h-5.6V371.1H310.3v-5.6h30.3Z" transform="translate(-32.7 -218.2)" fill="#231f20"/><path d="M405.5,422.3V401.5l-17.9-36.9H397l12.7,27,12.6-27h9.4l-17.8,36.9v20.8Z" transform="translate(-32.7 -218.2)" fill="#d0212c"/><path d="M438.9,422.3V364.7h8.4v50h20v7.7Z" transform="translate(-32.7 -218.2)" fill="#d0212c"/><rect x="276.3" y="146.5" width="33.2" height="7.47" fill="#d0212c"/><rect x="288.7" y="153.9" width="8.3" height="50.21" fill="#d0212c"/><polygon points="356.3 204.1 347.2 204.1 334.1 168.1 321.2 204.1 311.9 204.1 334.1 145.7 356.3 204.1" fill="#d0212c"/><path d="M157.5,422.6h-8.3a180.3,180.3,0,0,1,1-58.3h8.3a178,178,0,0,0-1,58.3Z" transform="translate(-32.7 -218.2)" fill="#fff"/><path d="M391.8,562.3A178.6,178.6,0,0,1,151.7,436.5h8.4A176.4,176.4,0,0,0,391.8,562.3Z" transform="translate(-32.7 -218.2)" fill="#d0212c"/><path d="M161.7,350.4h-8.4A178.6,178.6,0,0,1,391.8,230.9,176.4,176.4,0,0,0,161.7,350.4Z" transform="translate(-32.7 -218.2)" fill="#d0212c"/></svg>