<svg id="Layer_1" data-name="Layer 1" xmlns="http://www.w3.org/2000/svg" width="257.1" height="93.5" viewBox="0 0 257.1 93.5"><title>orion-logo</title><path d="M338,160.5l5.3-1a23.2,23.2,0,0,1,45.5-8.4l5.3-1c-3.9-15.4-19.2-23.2-32.8-20.7S336.1,145.5,338,160.5Z" transform="translate(-267.4 -129)" fill="#c22026"/><path d="M339.1,165.5c4.3,13.7,18.6,21.6,32.4,19s24.3-15.5,23.4-29.4l-5.3,1a23.2,23.2,0,0,1-45.2,8.3Z" transform="translate(-267.4 -129)" fill="#c22026"/><path d="M441,182.5v1.8H414v-1.8h2.8c2.3,0,3.9-.3,4.8-.9a4.1,4.1,0,0,0,1.7-2.7,58.1,58.1,0,0,0,.4-8.7V156.4l7.8,1.7v12.1a70.9,70.9,0,0,0,.3,8.4,4.3,4.3,0,0,0,1.6,3q1.3,1,5,1Z" transform="translate(-267.4 -129)" fill="#c22026"/><path d="M454.2,143.1h-1.7c-.6-3.6-1.5-6.2-2.5-7.8a6.6,6.6,0,0,0-3.4-2.9,25.2,25.2,0,0,0-6.3-.5h-8.7v23.3l-7.8-1.7V131.8h-8.1a31.6,31.6,0,0,0-7.1.5,6.3,6.3,0,0,0-3.4,3,21.4,21.4,0,0,0-2.4,7.7h-1.8l.3-13.1h52.7Z" transform="translate(-267.4 -129)" fill="#c22026"/><path d="M483.2,177.1A216.3,216.3,0,0,0,434,161.3l-7.8-1.3a200.8,200.8,0,0,0-24-2.2H396a201.7,201.7,0,0,0-20.2,1l-4.1.5a202.7,202.7,0,0,0-20.1,3.5l-6,1.4a219.4,219.4,0,0,0-36.9,13.1,190.3,190.3,0,0,1,29-13.8l7.3-2.6,5.8-1.8a166.1,166.1,0,0,1,19.7-4.4l5.4-.8a161.5,161.5,0,0,1,20.1-1.3h6.2a162.3,162.3,0,0,1,24,2.7l7.8,1.7a172.6,172.6,0,0,1,20.2,6.2A190.3,190.3,0,0,1,483.2,177.1Z" transform="translate(-267.4 -129)" fill="none" stroke="#010101" stroke-miterlimit="10" stroke-width="5.86"/><path d="M483.2,177.1A216.3,216.3,0,0,0,434,161.3l-7.8-1.3a200.8,200.8,0,0,0-24-2.2H396a201.7,201.7,0,0,0-20.2,1l-4.1.5a202.7,202.7,0,0,0-20.1,3.5l-6,1.4a219.4,219.4,0,0,0-36.9,13.1,190.3,190.3,0,0,1,29-13.8l7.3-2.6,5.8-1.8a166.1,166.1,0,0,1,19.7-4.4l5.4-.8a161.5,161.5,0,0,1,20.1-1.3h6.2a162.3,162.3,0,0,1,24,2.7l7.8,1.7a172.6,172.6,0,0,1,20.2,6.2A190.3,190.3,0,0,1,483.2,177.1Z" transform="translate(-267.4 -129)" fill="#fff"/><path d="M281.7,194.5a14,14,0,1,1,0,28.1c-7.7,0-14.3-6.3-14.3-13.9A14.2,14.2,0,0,1,281.7,194.5Zm0,25.6a11.6,11.6,0,1,0-11.6-11.4A11.7,11.7,0,0,0,281.7,220.1Z" transform="translate(-267.4 -129)" fill="#fff"/><path d="M300.2,194.9h6.9c3.6,0,5.4.4,6.7,1a8.4,8.4,0,0,1,4.8,7.7,8.2,8.2,0,0,1-8.1,8.2l7.7,10.1h-3.4l-9.2-12.3c3.4,0,4.6,0,5.8-.4a6,6,0,0,0,1.5-11,10.2,10.2,0,0,0-5.3-1h-4.7V222h-2.7Z" transform="translate(-267.4 -129)" fill="#fff"/><path d="M322.7,194.9h2.7V222h-2.7Z" transform="translate(-267.4 -129)" fill="#fff"/><path d="M344.1,194.5a14,14,0,1,1,0,28.1c-7.7,0-14.3-6.3-14.3-13.9A14.2,14.2,0,0,1,344.1,194.5Zm0,25.6a11.6,11.6,0,1,0-11.6-11.4A11.7,11.7,0,0,0,344.1,220.1Z" transform="translate(-267.4 -129)" fill="#fff"/><path d="M362.8,194.9h3.7l15.1,22.5h.1V194.9h2.7V222h-2.7l-16.1-23.9h-.1V222h-2.7Z" transform="translate(-267.4 -129)" fill="#fff"/><path d="M402.8,197.4h-6.2v-2.5h15.1v2.5h-6.2V222h-2.7Z" transform="translate(-267.4 -129)" fill="#fff"/><path d="M433,222h-2.8l-7.7-20.2L414.9,222H412l10.5-27.3Z" transform="translate(-267.4 -129)" fill="#fff"/><path d="M442.5,213l-9.4-18.1h3l7.7,15.2,7.9-15.2h3L445.2,213v9h-2.7Z" transform="translate(-267.4 -129)" fill="#fff"/><path d="M457.8,194.9h2.7v24.7h11.2V222H457.8Z" transform="translate(-267.4 -129)" fill="#fff"/><path d="M487.6,194.5a14,14,0,1,1,0,28.1c-7.7,0-14.3-6.3-14.3-13.9A14.2,14.2,0,0,1,487.6,194.5Zm0,25.6A11.6,11.6,0,1,0,476,208.6,11.7,11.7,0,0,0,487.6,220.1Z" transform="translate(-267.4 -129)" fill="#fff"/><path d="M506.1,194.9H513c3.6,0,5.4.4,6.7,1a8.4,8.4,0,0,1,4.8,7.7,8.2,8.2,0,0,1-8.1,8.2l7.7,10.1h-3.4l-9.2-12.3c3.4,0,4.6,0,5.8-.4a6,6,0,0,0,1.5-11,10.2,10.2,0,0,0-5.3-1h-4.7V222h-2.7Z" transform="translate(-267.4 -129)" fill="#fff"/><rect x="138.6" y="2.3" width="44.1" height="2.51" fill="#c22026"/><polygon points="137.8 6.4 182.6 6.4 182.7 2.3 138.6 2.3 137.8 6.4" fill="#c22026"/></svg>